<?xml version="1.0" encoding="utf-8" standalone="no"?>
<!DOCTYPE svg PUBLIC "-//W3C//DTD SVG 1.1//EN"
  "http://www.w3.org/Graphics/SVG/1.1/DTD/svg11.dtd">
<svg height="288pt" version="1.1" viewBox="0 0 432 288" width="432pt" xmlns="http://www.w3.org/2000/svg" xmlns:xlink="http://www.w3.org/1999/xlink">
 <metadata>
  <rdf:RDF xmlns:cc="http://creativecommons.org/ns#" xmlns:dc="http://purl.org/dc/elements/1.1/" xmlns:rdf="http://www.w3.org/1999/02/22-rdf-syntax-ns#">
   <cc:Work>
    <dc:type rdf:resource="http://purl.org/dc/dcmitype/StillImage"/>
    <dc:date>2022-02-14T13:30:47.001339</dc:date>
    <dc:format>image/svg+xml</dc:format>
    <dc:creator>
     <cc:Agent>
      <dc:title>Matplotlib v3.4.3, https://matplotlib.org/</dc:title>
     </cc:Agent>
    </dc:creator>
   </cc:Work>
  </rdf:RDF>
 </metadata>
 <defs>
  <style type="text/css">*{stroke-linecap:butt;stroke-linejoin:round;}</style>
 </defs>
 <g id="figure_1">
  <g id="patch_1">
   <path d="M 0 288 
L 432 288 
L 432 0 
L 0 0 
z
" style="fill:none;"/>
  </g>
  <g id="axes_1">
   <g id="patch_2">
    <path d="M 54 252 
L 388.8 252 
L 388.8 34.56 
L 54 34.56 
z
" style="fill:#ffffff;"/>
   </g>
   <g id="PathCollection_1">
    <defs>
     <path d="M 0 3 
C 0.795609 3 1.55874 2.683901 2.12132 2.12132 
C 2.683901 1.55874 3 0.795609 3 0 
C 3 -0.795609 2.683901 -1.55874 2.12132 -2.12132 
C 1.55874 -2.683901 0.795609 -3 0 -3 
C -0.795609 -3 -1.55874 -2.683901 -2.12132 -2.12132 
C -2.683901 -1.55874 -3 -0.795609 -3 0 
C -3 0.795609 -2.683901 1.55874 -2.12132 2.12132 
C -1.55874 2.683901 -0.795609 3 0 3 
z
" id="m1cdbb752c1" style="stroke:#1f77b4;"/>
    </defs>
    <g clip-path="url(#pbec934fb1f)">
     <use style="fill:#1f77b4;stroke:#1f77b4;" x="143.347389" xlink:href="#m1cdbb752c1" y="149.947118"/>
     <use style="fill:#1f77b4;stroke:#1f77b4;" x="242.057479" xlink:href="#m1cdbb752c1" y="127.542258"/>
     <use style="fill:#1f77b4;stroke:#1f77b4;" x="75.657838" xlink:href="#m1cdbb752c1" y="75.87732"/>
     <use style="fill:#1f77b4;stroke:#1f77b4;" x="194.008429" xlink:href="#m1cdbb752c1" y="72.700512"/>
     <use style="fill:#1f77b4;stroke:#1f77b4;" x="77.509352" xlink:href="#m1cdbb752c1" y="153.500127"/>
     <use style="fill:#1f77b4;stroke:#1f77b4;" x="373.581818" xlink:href="#m1cdbb752c1" y="88.333753"/>
     <use style="fill:#1f77b4;stroke:#1f77b4;" x="69.873889" xlink:href="#m1cdbb752c1" y="189.949824"/>
     <use style="fill:#1f77b4;stroke:#1f77b4;" x="292.203707" xlink:href="#m1cdbb752c1" y="143.635301"/>
     <use style="fill:#1f77b4;stroke:#1f77b4;" x="234.888055" xlink:href="#m1cdbb752c1" y="118.806035"/>
     <use style="fill:#1f77b4;stroke:#1f77b4;" x="266.168709" xlink:href="#m1cdbb752c1" y="140.207692"/>
     <use style="fill:#1f77b4;stroke:#1f77b4;" x="69.218182" xlink:href="#m1cdbb752c1" y="191.245628"/>
     <use style="fill:#1f77b4;stroke:#1f77b4;" x="72.26731" xlink:href="#m1cdbb752c1" y="155.130332"/>
     <use style="fill:#1f77b4;stroke:#1f77b4;" x="144.033804" xlink:href="#m1cdbb752c1" y="80.558933"/>
     <use style="fill:#1f77b4;stroke:#1f77b4;" x="226.152521" xlink:href="#m1cdbb752c1" y="117.09223"/>
     <use style="fill:#1f77b4;stroke:#1f77b4;" x="222.624709" xlink:href="#m1cdbb752c1" y="135.567879"/>
     <use style="fill:#1f77b4;stroke:#1f77b4;" x="241.701627" xlink:href="#m1cdbb752c1" y="102.16959"/>
     <use style="fill:#1f77b4;stroke:#1f77b4;" x="109.696797" xlink:href="#m1cdbb752c1" y="60.076878"/>
     <use style="fill:#1f77b4;stroke:#1f77b4;" x="109.415005" xlink:href="#m1cdbb752c1" y="158.18174"/>
     <use style="fill:#1f77b4;stroke:#1f77b4;" x="212.902905" xlink:href="#m1cdbb752c1" y="150.406919"/>
     <use style="fill:#1f77b4;stroke:#1f77b4;" x="106.174404" xlink:href="#m1cdbb752c1" y="145.892507"/>
     <use style="fill:#1f77b4;stroke:#1f77b4;" x="100.401293" xlink:href="#m1cdbb752c1" y="104.468596"/>
     <use style="fill:#1f77b4;stroke:#1f77b4;" x="87.507529" xlink:href="#m1cdbb752c1" y="44.443636"/>
     <use style="fill:#1f77b4;stroke:#1f77b4;" x="248.4303" xlink:href="#m1cdbb752c1" y="93.558767"/>
     <use style="fill:#1f77b4;stroke:#1f77b4;" x="182.648261" xlink:href="#m1cdbb752c1" y="160.062745"/>
     <use style="fill:#1f77b4;stroke:#1f77b4;" x="142.070296" xlink:href="#m1cdbb752c1" y="68.562301"/>
     <use style="fill:#1f77b4;stroke:#1f77b4;" x="71.165433" xlink:href="#m1cdbb752c1" y="151.869923"/>
     <use style="fill:#1f77b4;stroke:#1f77b4;" x="153.061968" xlink:href="#m1cdbb752c1" y="132.265671"/>
     <use style="fill:#1f77b4;stroke:#1f77b4;" x="247.546992" xlink:href="#m1cdbb752c1" y="121.815643"/>
     <use style="fill:#1f77b4;stroke:#1f77b4;" x="88.687079" xlink:href="#m1cdbb752c1" y="197.599245"/>
     <use style="fill:#1f77b4;stroke:#1f77b4;" x="151.053301" xlink:href="#m1cdbb752c1" y="80.140932"/>
     <use style="fill:#1f77b4;stroke:#1f77b4;" x="138.609319" xlink:href="#m1cdbb752c1" y="73.452914"/>
     <use style="fill:#1f77b4;stroke:#1f77b4;" x="290.77488" xlink:href="#m1cdbb752c1" y="103.005593"/>
     <use style="fill:#1f77b4;stroke:#1f77b4;" x="73.920125" xlink:href="#m1cdbb752c1" y="118.471634"/>
     <use style="fill:#1f77b4;stroke:#1f77b4;" x="95.77883" xlink:href="#m1cdbb752c1" y="116.381628"/>
     <use style="fill:#1f77b4;stroke:#1f77b4;" x="74.828721" xlink:href="#m1cdbb752c1" y="184.139609"/>
     <use style="fill:#1f77b4;stroke:#1f77b4;" x="106.734374" xlink:href="#m1cdbb752c1" y="112.954019"/>
     <use style="fill:#1f77b4;stroke:#1f77b4;" x="130.030938" xlink:href="#m1cdbb752c1" y="113.831821"/>
     <use style="fill:#1f77b4;stroke:#1f77b4;" x="165.962957" xlink:href="#m1cdbb752c1" y="107.060203"/>
     <use style="fill:#1f77b4;stroke:#1f77b4;" x="245.475103" xlink:href="#m1cdbb752c1" y="124.908851"/>
     <use style="fill:#1f77b4;stroke:#1f77b4;" x="69.274179" xlink:href="#m1cdbb752c1" y="122.944246"/>
     <use style="fill:#1f77b4;stroke:#1f77b4;" x="265.366687" xlink:href="#m1cdbb752c1" y="135.024478"/>
     <use style="fill:#1f77b4;stroke:#1f77b4;" x="190.713637" xlink:href="#m1cdbb752c1" y="60.536679"/>
     <use style="fill:#1f77b4;stroke:#1f77b4;" x="70.153874" xlink:href="#m1cdbb752c1" y="70.861307"/>
     <use style="fill:#1f77b4;stroke:#1f77b4;" x="286.235509" xlink:href="#m1cdbb752c1" y="162.946952"/>
     <use style="fill:#1f77b4;stroke:#1f77b4;" x="84.456595" xlink:href="#m1cdbb752c1" y="161.86015"/>
     <use style="fill:#1f77b4;stroke:#1f77b4;" x="205.502267" xlink:href="#m1cdbb752c1" y="117.593831"/>
     <use style="fill:#1f77b4;stroke:#1f77b4;" x="191.559011" xlink:href="#m1cdbb752c1" y="133.101673"/>
     <use style="fill:#1f77b4;stroke:#1f77b4;" x="154.45828" xlink:href="#m1cdbb752c1" y="121.648442"/>
     <use style="fill:#1f77b4;stroke:#1f77b4;" x="139.955054" xlink:href="#m1cdbb752c1" y="101.709789"/>
     <use style="fill:#1f77b4;stroke:#1f77b4;" x="303.55665" xlink:href="#m1cdbb752c1" y="104.092395"/>
     <use style="fill:#1f77b4;stroke:#1f77b4;" x="155.925041" xlink:href="#m1cdbb752c1" y="167.419564"/>
     <use style="fill:#1f77b4;stroke:#1f77b4;" x="265.624996" xlink:href="#m1cdbb752c1" y="102.420391"/>
     <use style="fill:#1f77b4;stroke:#1f77b4;" x="225.308953" xlink:href="#m1cdbb752c1" y="68.4787"/>
     <use style="fill:#1f77b4;stroke:#1f77b4;" x="69.380754" xlink:href="#m1cdbb752c1" y="128.21106"/>
     <use style="fill:#1f77b4;stroke:#1f77b4;" x="140.686628" xlink:href="#m1cdbb752c1" y="176.448388"/>
     <use style="fill:#1f77b4;stroke:#1f77b4;" x="113.939925" xlink:href="#m1cdbb752c1" y="170.972574"/>
     <use style="fill:#1f77b4;stroke:#1f77b4;" x="70.209871" xlink:href="#m1cdbb752c1" y="180.210399"/>
     <use style="fill:#1f77b4;stroke:#1f77b4;" x="148.854966" xlink:href="#m1cdbb752c1" y="153.918128"/>
     <use style="fill:#1f77b4;stroke:#1f77b4;" x="78.629293" xlink:href="#m1cdbb752c1" y="110.446012"/>
     <use style="fill:#1f77b4;stroke:#1f77b4;" x="73.029591" xlink:href="#m1cdbb752c1" y="171.975777"/>
     <use style="fill:#1f77b4;stroke:#1f77b4;" x="73.629301" xlink:href="#m1cdbb752c1" y="242.116364"/>
    </g>
   </g>
   <g id="matplotlib.axis_1">
    <g id="xtick_1">
     <g id="line2d_1">
      <defs>
       <path d="M 0 0 
L 0 3.5 
" id="m3c5f643698" style="stroke:#000000;stroke-width:0.8;"/>
      </defs>
      <g>
       <use style="stroke:#000000;stroke-width:0.8;" x="69.218182" xlink:href="#m3c5f643698" y="252"/>
      </g>
     </g>
     <g id="text_1">
      <!-- 0 -->
      <g transform="translate(66.036932 266.598437)scale(0.1 -0.1)">
       <defs>
        <path d="M 2034 4250 
Q 1547 4250 1301 3770 
Q 1056 3291 1056 2328 
Q 1056 1369 1301 889 
Q 1547 409 2034 409 
Q 2525 409 2770 889 
Q 3016 1369 3016 2328 
Q 3016 3291 2770 3770 
Q 2525 4250 2034 4250 
z
M 2034 4750 
Q 2819 4750 3233 4129 
Q 3647 3509 3647 2328 
Q 3647 1150 3233 529 
Q 2819 -91 2034 -91 
Q 1250 -91 836 529 
Q 422 1150 422 2328 
Q 422 3509 836 4129 
Q 1250 4750 2034 4750 
z
" id="DejaVuSans-30" transform="scale(0.015625)"/>
       </defs>
       <use xlink:href="#DejaVuSans-30"/>
      </g>
     </g>
    </g>
    <g id="xtick_2">
     <g id="line2d_2">
      <g>
       <use style="stroke:#000000;stroke-width:0.8;" x="114.377063" xlink:href="#m3c5f643698" y="252"/>
      </g>
     </g>
     <g id="text_2">
      <!-- 25 -->
      <g transform="translate(108.014563 266.598437)scale(0.1 -0.1)">
       <defs>
        <path d="M 1228 531 
L 3431 531 
L 3431 0 
L 469 0 
L 469 531 
Q 828 903 1448 1529 
Q 2069 2156 2228 2338 
Q 2531 2678 2651 2914 
Q 2772 3150 2772 3378 
Q 2772 3750 2511 3984 
Q 2250 4219 1831 4219 
Q 1534 4219 1204 4116 
Q 875 4013 500 3803 
L 500 4441 
Q 881 4594 1212 4672 
Q 1544 4750 1819 4750 
Q 2544 4750 2975 4387 
Q 3406 4025 3406 3419 
Q 3406 3131 3298 2873 
Q 3191 2616 2906 2266 
Q 2828 2175 2409 1742 
Q 1991 1309 1228 531 
z
" id="DejaVuSans-32" transform="scale(0.015625)"/>
        <path d="M 691 4666 
L 3169 4666 
L 3169 4134 
L 1269 4134 
L 1269 2991 
Q 1406 3038 1543 3061 
Q 1681 3084 1819 3084 
Q 2600 3084 3056 2656 
Q 3513 2228 3513 1497 
Q 3513 744 3044 326 
Q 2575 -91 1722 -91 
Q 1428 -91 1123 -41 
Q 819 9 494 109 
L 494 744 
Q 775 591 1075 516 
Q 1375 441 1709 441 
Q 2250 441 2565 725 
Q 2881 1009 2881 1497 
Q 2881 1984 2565 2268 
Q 2250 2553 1709 2553 
Q 1456 2553 1204 2497 
Q 953 2441 691 2322 
L 691 4666 
z
" id="DejaVuSans-35" transform="scale(0.015625)"/>
       </defs>
       <use xlink:href="#DejaVuSans-32"/>
       <use x="63.623047" xlink:href="#DejaVuSans-35"/>
      </g>
     </g>
    </g>
    <g id="xtick_3">
     <g id="line2d_3">
      <g>
       <use style="stroke:#000000;stroke-width:0.8;" x="159.535945" xlink:href="#m3c5f643698" y="252"/>
      </g>
     </g>
     <g id="text_3">
      <!-- 50 -->
      <g transform="translate(153.173445 266.598437)scale(0.1 -0.1)">
       <use xlink:href="#DejaVuSans-35"/>
       <use x="63.623047" xlink:href="#DejaVuSans-30"/>
      </g>
     </g>
    </g>
    <g id="xtick_4">
     <g id="line2d_4">
      <g>
       <use style="stroke:#000000;stroke-width:0.8;" x="204.694827" xlink:href="#m3c5f643698" y="252"/>
      </g>
     </g>
     <g id="text_4">
      <!-- 75 -->
      <g transform="translate(198.332327 266.598437)scale(0.1 -0.1)">
       <defs>
        <path d="M 525 4666 
L 3525 4666 
L 3525 4397 
L 1831 0 
L 1172 0 
L 2766 4134 
L 525 4134 
L 525 4666 
z
" id="DejaVuSans-37" transform="scale(0.015625)"/>
       </defs>
       <use xlink:href="#DejaVuSans-37"/>
       <use x="63.623047" xlink:href="#DejaVuSans-35"/>
      </g>
     </g>
    </g>
    <g id="xtick_5">
     <g id="line2d_5">
      <g>
       <use style="stroke:#000000;stroke-width:0.8;" x="249.853708" xlink:href="#m3c5f643698" y="252"/>
      </g>
     </g>
     <g id="text_5">
      <!-- 100 -->
      <g transform="translate(240.309958 266.598437)scale(0.1 -0.1)">
       <defs>
        <path d="M 794 531 
L 1825 531 
L 1825 4091 
L 703 3866 
L 703 4441 
L 1819 4666 
L 2450 4666 
L 2450 531 
L 3481 531 
L 3481 0 
L 794 0 
L 794 531 
z
" id="DejaVuSans-31" transform="scale(0.015625)"/>
       </defs>
       <use xlink:href="#DejaVuSans-31"/>
       <use x="63.623047" xlink:href="#DejaVuSans-30"/>
       <use x="127.246094" xlink:href="#DejaVuSans-30"/>
      </g>
     </g>
    </g>
    <g id="xtick_6">
     <g id="line2d_6">
      <g>
       <use style="stroke:#000000;stroke-width:0.8;" x="295.01259" xlink:href="#m3c5f643698" y="252"/>
      </g>
     </g>
     <g id="text_6">
      <!-- 125 -->
      <g transform="translate(285.46884 266.598437)scale(0.1 -0.1)">
       <use xlink:href="#DejaVuSans-31"/>
       <use x="63.623047" xlink:href="#DejaVuSans-32"/>
       <use x="127.246094" xlink:href="#DejaVuSans-35"/>
      </g>
     </g>
    </g>
    <g id="xtick_7">
     <g id="line2d_7">
      <g>
       <use style="stroke:#000000;stroke-width:0.8;" x="340.171471" xlink:href="#m3c5f643698" y="252"/>
      </g>
     </g>
     <g id="text_7">
      <!-- 150 -->
      <g transform="translate(330.627721 266.598437)scale(0.1 -0.1)">
       <use xlink:href="#DejaVuSans-31"/>
       <use x="63.623047" xlink:href="#DejaVuSans-35"/>
       <use x="127.246094" xlink:href="#DejaVuSans-30"/>
      </g>
     </g>
    </g>
    <g id="xtick_8">
     <g id="line2d_8">
      <g>
       <use style="stroke:#000000;stroke-width:0.8;" x="385.330353" xlink:href="#m3c5f643698" y="252"/>
      </g>
     </g>
     <g id="text_8">
      <!-- 175 -->
      <g transform="translate(375.786603 266.598437)scale(0.1 -0.1)">
       <use xlink:href="#DejaVuSans-31"/>
       <use x="63.623047" xlink:href="#DejaVuSans-37"/>
       <use x="127.246094" xlink:href="#DejaVuSans-35"/>
      </g>
     </g>
    </g>
    <g id="text_9">
     <!-- COVID-19 deaths per 100,000 population in 2020 -->
     <g transform="translate(97.692969 280.276563)scale(0.1 -0.1)">
      <defs>
       <path d="M 4122 4306 
L 4122 3641 
Q 3803 3938 3442 4084 
Q 3081 4231 2675 4231 
Q 1875 4231 1450 3742 
Q 1025 3253 1025 2328 
Q 1025 1406 1450 917 
Q 1875 428 2675 428 
Q 3081 428 3442 575 
Q 3803 722 4122 1019 
L 4122 359 
Q 3791 134 3420 21 
Q 3050 -91 2638 -91 
Q 1578 -91 968 557 
Q 359 1206 359 2328 
Q 359 3453 968 4101 
Q 1578 4750 2638 4750 
Q 3056 4750 3426 4639 
Q 3797 4528 4122 4306 
z
" id="DejaVuSans-43" transform="scale(0.015625)"/>
       <path d="M 2522 4238 
Q 1834 4238 1429 3725 
Q 1025 3213 1025 2328 
Q 1025 1447 1429 934 
Q 1834 422 2522 422 
Q 3209 422 3611 934 
Q 4013 1447 4013 2328 
Q 4013 3213 3611 3725 
Q 3209 4238 2522 4238 
z
M 2522 4750 
Q 3503 4750 4090 4092 
Q 4678 3434 4678 2328 
Q 4678 1225 4090 567 
Q 3503 -91 2522 -91 
Q 1538 -91 948 565 
Q 359 1222 359 2328 
Q 359 3434 948 4092 
Q 1538 4750 2522 4750 
z
" id="DejaVuSans-4f" transform="scale(0.015625)"/>
       <path d="M 1831 0 
L 50 4666 
L 709 4666 
L 2188 738 
L 3669 4666 
L 4325 4666 
L 2547 0 
L 1831 0 
z
" id="DejaVuSans-56" transform="scale(0.015625)"/>
       <path d="M 628 4666 
L 1259 4666 
L 1259 0 
L 628 0 
L 628 4666 
z
" id="DejaVuSans-49" transform="scale(0.015625)"/>
       <path d="M 1259 4147 
L 1259 519 
L 2022 519 
Q 2988 519 3436 956 
Q 3884 1394 3884 2338 
Q 3884 3275 3436 3711 
Q 2988 4147 2022 4147 
L 1259 4147 
z
M 628 4666 
L 1925 4666 
Q 3281 4666 3915 4102 
Q 4550 3538 4550 2338 
Q 4550 1131 3912 565 
Q 3275 0 1925 0 
L 628 0 
L 628 4666 
z
" id="DejaVuSans-44" transform="scale(0.015625)"/>
       <path d="M 313 2009 
L 1997 2009 
L 1997 1497 
L 313 1497 
L 313 2009 
z
" id="DejaVuSans-2d" transform="scale(0.015625)"/>
       <path d="M 703 97 
L 703 672 
Q 941 559 1184 500 
Q 1428 441 1663 441 
Q 2288 441 2617 861 
Q 2947 1281 2994 2138 
Q 2813 1869 2534 1725 
Q 2256 1581 1919 1581 
Q 1219 1581 811 2004 
Q 403 2428 403 3163 
Q 403 3881 828 4315 
Q 1253 4750 1959 4750 
Q 2769 4750 3195 4129 
Q 3622 3509 3622 2328 
Q 3622 1225 3098 567 
Q 2575 -91 1691 -91 
Q 1453 -91 1209 -44 
Q 966 3 703 97 
z
M 1959 2075 
Q 2384 2075 2632 2365 
Q 2881 2656 2881 3163 
Q 2881 3666 2632 3958 
Q 2384 4250 1959 4250 
Q 1534 4250 1286 3958 
Q 1038 3666 1038 3163 
Q 1038 2656 1286 2365 
Q 1534 2075 1959 2075 
z
" id="DejaVuSans-39" transform="scale(0.015625)"/>
       <path id="DejaVuSans-20" transform="scale(0.015625)"/>
       <path d="M 2906 2969 
L 2906 4863 
L 3481 4863 
L 3481 0 
L 2906 0 
L 2906 525 
Q 2725 213 2448 61 
Q 2172 -91 1784 -91 
Q 1150 -91 751 415 
Q 353 922 353 1747 
Q 353 2572 751 3078 
Q 1150 3584 1784 3584 
Q 2172 3584 2448 3432 
Q 2725 3281 2906 2969 
z
M 947 1747 
Q 947 1113 1208 752 
Q 1469 391 1925 391 
Q 2381 391 2643 752 
Q 2906 1113 2906 1747 
Q 2906 2381 2643 2742 
Q 2381 3103 1925 3103 
Q 1469 3103 1208 2742 
Q 947 2381 947 1747 
z
" id="DejaVuSans-64" transform="scale(0.015625)"/>
       <path d="M 3597 1894 
L 3597 1613 
L 953 1613 
Q 991 1019 1311 708 
Q 1631 397 2203 397 
Q 2534 397 2845 478 
Q 3156 559 3463 722 
L 3463 178 
Q 3153 47 2828 -22 
Q 2503 -91 2169 -91 
Q 1331 -91 842 396 
Q 353 884 353 1716 
Q 353 2575 817 3079 
Q 1281 3584 2069 3584 
Q 2775 3584 3186 3129 
Q 3597 2675 3597 1894 
z
M 3022 2063 
Q 3016 2534 2758 2815 
Q 2500 3097 2075 3097 
Q 1594 3097 1305 2825 
Q 1016 2553 972 2059 
L 3022 2063 
z
" id="DejaVuSans-65" transform="scale(0.015625)"/>
       <path d="M 2194 1759 
Q 1497 1759 1228 1600 
Q 959 1441 959 1056 
Q 959 750 1161 570 
Q 1363 391 1709 391 
Q 2188 391 2477 730 
Q 2766 1069 2766 1631 
L 2766 1759 
L 2194 1759 
z
M 3341 1997 
L 3341 0 
L 2766 0 
L 2766 531 
Q 2569 213 2275 61 
Q 1981 -91 1556 -91 
Q 1019 -91 701 211 
Q 384 513 384 1019 
Q 384 1609 779 1909 
Q 1175 2209 1959 2209 
L 2766 2209 
L 2766 2266 
Q 2766 2663 2505 2880 
Q 2244 3097 1772 3097 
Q 1472 3097 1187 3025 
Q 903 2953 641 2809 
L 641 3341 
Q 956 3463 1253 3523 
Q 1550 3584 1831 3584 
Q 2591 3584 2966 3190 
Q 3341 2797 3341 1997 
z
" id="DejaVuSans-61" transform="scale(0.015625)"/>
       <path d="M 1172 4494 
L 1172 3500 
L 2356 3500 
L 2356 3053 
L 1172 3053 
L 1172 1153 
Q 1172 725 1289 603 
Q 1406 481 1766 481 
L 2356 481 
L 2356 0 
L 1766 0 
Q 1100 0 847 248 
Q 594 497 594 1153 
L 594 3053 
L 172 3053 
L 172 3500 
L 594 3500 
L 594 4494 
L 1172 4494 
z
" id="DejaVuSans-74" transform="scale(0.015625)"/>
       <path d="M 3513 2113 
L 3513 0 
L 2938 0 
L 2938 2094 
Q 2938 2591 2744 2837 
Q 2550 3084 2163 3084 
Q 1697 3084 1428 2787 
Q 1159 2491 1159 1978 
L 1159 0 
L 581 0 
L 581 4863 
L 1159 4863 
L 1159 2956 
Q 1366 3272 1645 3428 
Q 1925 3584 2291 3584 
Q 2894 3584 3203 3211 
Q 3513 2838 3513 2113 
z
" id="DejaVuSans-68" transform="scale(0.015625)"/>
       <path d="M 2834 3397 
L 2834 2853 
Q 2591 2978 2328 3040 
Q 2066 3103 1784 3103 
Q 1356 3103 1142 2972 
Q 928 2841 928 2578 
Q 928 2378 1081 2264 
Q 1234 2150 1697 2047 
L 1894 2003 
Q 2506 1872 2764 1633 
Q 3022 1394 3022 966 
Q 3022 478 2636 193 
Q 2250 -91 1575 -91 
Q 1294 -91 989 -36 
Q 684 19 347 128 
L 347 722 
Q 666 556 975 473 
Q 1284 391 1588 391 
Q 1994 391 2212 530 
Q 2431 669 2431 922 
Q 2431 1156 2273 1281 
Q 2116 1406 1581 1522 
L 1381 1569 
Q 847 1681 609 1914 
Q 372 2147 372 2553 
Q 372 3047 722 3315 
Q 1072 3584 1716 3584 
Q 2034 3584 2315 3537 
Q 2597 3491 2834 3397 
z
" id="DejaVuSans-73" transform="scale(0.015625)"/>
       <path d="M 1159 525 
L 1159 -1331 
L 581 -1331 
L 581 3500 
L 1159 3500 
L 1159 2969 
Q 1341 3281 1617 3432 
Q 1894 3584 2278 3584 
Q 2916 3584 3314 3078 
Q 3713 2572 3713 1747 
Q 3713 922 3314 415 
Q 2916 -91 2278 -91 
Q 1894 -91 1617 61 
Q 1341 213 1159 525 
z
M 3116 1747 
Q 3116 2381 2855 2742 
Q 2594 3103 2138 3103 
Q 1681 3103 1420 2742 
Q 1159 2381 1159 1747 
Q 1159 1113 1420 752 
Q 1681 391 2138 391 
Q 2594 391 2855 752 
Q 3116 1113 3116 1747 
z
" id="DejaVuSans-70" transform="scale(0.015625)"/>
       <path d="M 2631 2963 
Q 2534 3019 2420 3045 
Q 2306 3072 2169 3072 
Q 1681 3072 1420 2755 
Q 1159 2438 1159 1844 
L 1159 0 
L 581 0 
L 581 3500 
L 1159 3500 
L 1159 2956 
Q 1341 3275 1631 3429 
Q 1922 3584 2338 3584 
Q 2397 3584 2469 3576 
Q 2541 3569 2628 3553 
L 2631 2963 
z
" id="DejaVuSans-72" transform="scale(0.015625)"/>
       <path d="M 750 794 
L 1409 794 
L 1409 256 
L 897 -744 
L 494 -744 
L 750 256 
L 750 794 
z
" id="DejaVuSans-2c" transform="scale(0.015625)"/>
       <path d="M 1959 3097 
Q 1497 3097 1228 2736 
Q 959 2375 959 1747 
Q 959 1119 1226 758 
Q 1494 397 1959 397 
Q 2419 397 2687 759 
Q 2956 1122 2956 1747 
Q 2956 2369 2687 2733 
Q 2419 3097 1959 3097 
z
M 1959 3584 
Q 2709 3584 3137 3096 
Q 3566 2609 3566 1747 
Q 3566 888 3137 398 
Q 2709 -91 1959 -91 
Q 1206 -91 779 398 
Q 353 888 353 1747 
Q 353 2609 779 3096 
Q 1206 3584 1959 3584 
z
" id="DejaVuSans-6f" transform="scale(0.015625)"/>
       <path d="M 544 1381 
L 544 3500 
L 1119 3500 
L 1119 1403 
Q 1119 906 1312 657 
Q 1506 409 1894 409 
Q 2359 409 2629 706 
Q 2900 1003 2900 1516 
L 2900 3500 
L 3475 3500 
L 3475 0 
L 2900 0 
L 2900 538 
Q 2691 219 2414 64 
Q 2138 -91 1772 -91 
Q 1169 -91 856 284 
Q 544 659 544 1381 
z
M 1991 3584 
L 1991 3584 
z
" id="DejaVuSans-75" transform="scale(0.015625)"/>
       <path d="M 603 4863 
L 1178 4863 
L 1178 0 
L 603 0 
L 603 4863 
z
" id="DejaVuSans-6c" transform="scale(0.015625)"/>
       <path d="M 603 3500 
L 1178 3500 
L 1178 0 
L 603 0 
L 603 3500 
z
M 603 4863 
L 1178 4863 
L 1178 4134 
L 603 4134 
L 603 4863 
z
" id="DejaVuSans-69" transform="scale(0.015625)"/>
       <path d="M 3513 2113 
L 3513 0 
L 2938 0 
L 2938 2094 
Q 2938 2591 2744 2837 
Q 2550 3084 2163 3084 
Q 1697 3084 1428 2787 
Q 1159 2491 1159 1978 
L 1159 0 
L 581 0 
L 581 3500 
L 1159 3500 
L 1159 2956 
Q 1366 3272 1645 3428 
Q 1925 3584 2291 3584 
Q 2894 3584 3203 3211 
Q 3513 2838 3513 2113 
z
" id="DejaVuSans-6e" transform="scale(0.015625)"/>
      </defs>
      <use xlink:href="#DejaVuSans-43"/>
      <use x="69.824219" xlink:href="#DejaVuSans-4f"/>
      <use x="146.785156" xlink:href="#DejaVuSans-56"/>
      <use x="215.193359" xlink:href="#DejaVuSans-49"/>
      <use x="244.685547" xlink:href="#DejaVuSans-44"/>
      <use x="321.6875" xlink:href="#DejaVuSans-2d"/>
      <use x="357.771484" xlink:href="#DejaVuSans-31"/>
      <use x="421.394531" xlink:href="#DejaVuSans-39"/>
      <use x="485.017578" xlink:href="#DejaVuSans-20"/>
      <use x="516.804688" xlink:href="#DejaVuSans-64"/>
      <use x="580.28125" xlink:href="#DejaVuSans-65"/>
      <use x="641.804688" xlink:href="#DejaVuSans-61"/>
      <use x="703.083984" xlink:href="#DejaVuSans-74"/>
      <use x="742.292969" xlink:href="#DejaVuSans-68"/>
      <use x="805.671875" xlink:href="#DejaVuSans-73"/>
      <use x="857.771484" xlink:href="#DejaVuSans-20"/>
      <use x="889.558594" xlink:href="#DejaVuSans-70"/>
      <use x="953.035156" xlink:href="#DejaVuSans-65"/>
      <use x="1014.558594" xlink:href="#DejaVuSans-72"/>
      <use x="1055.671875" xlink:href="#DejaVuSans-20"/>
      <use x="1087.458984" xlink:href="#DejaVuSans-31"/>
      <use x="1151.082031" xlink:href="#DejaVuSans-30"/>
      <use x="1214.705078" xlink:href="#DejaVuSans-30"/>
      <use x="1278.328125" xlink:href="#DejaVuSans-2c"/>
      <use x="1310.115234" xlink:href="#DejaVuSans-30"/>
      <use x="1373.738281" xlink:href="#DejaVuSans-30"/>
      <use x="1437.361328" xlink:href="#DejaVuSans-30"/>
      <use x="1500.984375" xlink:href="#DejaVuSans-20"/>
      <use x="1532.771484" xlink:href="#DejaVuSans-70"/>
      <use x="1596.248047" xlink:href="#DejaVuSans-6f"/>
      <use x="1657.429688" xlink:href="#DejaVuSans-70"/>
      <use x="1720.90625" xlink:href="#DejaVuSans-75"/>
      <use x="1784.285156" xlink:href="#DejaVuSans-6c"/>
      <use x="1812.068359" xlink:href="#DejaVuSans-61"/>
      <use x="1873.347656" xlink:href="#DejaVuSans-74"/>
      <use x="1912.556641" xlink:href="#DejaVuSans-69"/>
      <use x="1940.339844" xlink:href="#DejaVuSans-6f"/>
      <use x="2001.521484" xlink:href="#DejaVuSans-6e"/>
      <use x="2064.900391" xlink:href="#DejaVuSans-20"/>
      <use x="2096.6875" xlink:href="#DejaVuSans-69"/>
      <use x="2124.470703" xlink:href="#DejaVuSans-6e"/>
      <use x="2187.849609" xlink:href="#DejaVuSans-20"/>
      <use x="2219.636719" xlink:href="#DejaVuSans-32"/>
      <use x="2283.259766" xlink:href="#DejaVuSans-30"/>
      <use x="2346.882812" xlink:href="#DejaVuSans-32"/>
      <use x="2410.505859" xlink:href="#DejaVuSans-30"/>
     </g>
    </g>
   </g>
   <g id="matplotlib.axis_2">
    <g id="ytick_1">
     <g id="line2d_9">
      <defs>
       <path d="M 0 0 
L -3.5 0 
" id="m6424797ff5" style="stroke:#000000;stroke-width:0.8;"/>
      </defs>
      <g>
       <use style="stroke:#000000;stroke-width:0.8;" x="54" xlink:href="#m6424797ff5" y="248.804381"/>
      </g>
     </g>
     <g id="text_10">
      <!-- 3 -->
      <g transform="translate(40.6375 252.6036)scale(0.1 -0.1)">
       <defs>
        <path d="M 2597 2516 
Q 3050 2419 3304 2112 
Q 3559 1806 3559 1356 
Q 3559 666 3084 287 
Q 2609 -91 1734 -91 
Q 1441 -91 1130 -33 
Q 819 25 488 141 
L 488 750 
Q 750 597 1062 519 
Q 1375 441 1716 441 
Q 2309 441 2620 675 
Q 2931 909 2931 1356 
Q 2931 1769 2642 2001 
Q 2353 2234 1838 2234 
L 1294 2234 
L 1294 2753 
L 1863 2753 
Q 2328 2753 2575 2939 
Q 2822 3125 2822 3475 
Q 2822 3834 2567 4026 
Q 2313 4219 1838 4219 
Q 1578 4219 1281 4162 
Q 984 4106 628 3988 
L 628 4550 
Q 988 4650 1302 4700 
Q 1616 4750 1894 4750 
Q 2613 4750 3031 4423 
Q 3450 4097 3450 3541 
Q 3450 3153 3228 2886 
Q 3006 2619 2597 2516 
z
" id="DejaVuSans-33" transform="scale(0.015625)"/>
       </defs>
       <use xlink:href="#DejaVuSans-33"/>
      </g>
     </g>
    </g>
    <g id="ytick_2">
     <g id="line2d_10">
      <g>
       <use style="stroke:#000000;stroke-width:0.8;" x="54" xlink:href="#m6424797ff5" y="207.00427"/>
      </g>
     </g>
     <g id="text_11">
      <!-- 4 -->
      <g transform="translate(40.6375 210.803489)scale(0.1 -0.1)">
       <defs>
        <path d="M 2419 4116 
L 825 1625 
L 2419 1625 
L 2419 4116 
z
M 2253 4666 
L 3047 4666 
L 3047 1625 
L 3713 1625 
L 3713 1100 
L 3047 1100 
L 3047 0 
L 2419 0 
L 2419 1100 
L 313 1100 
L 313 1709 
L 2253 4666 
z
" id="DejaVuSans-34" transform="scale(0.015625)"/>
       </defs>
       <use xlink:href="#DejaVuSans-34"/>
      </g>
     </g>
    </g>
    <g id="ytick_3">
     <g id="line2d_11">
      <g>
       <use style="stroke:#000000;stroke-width:0.8;" x="54" xlink:href="#m6424797ff5" y="165.204158"/>
      </g>
     </g>
     <g id="text_12">
      <!-- 5 -->
      <g transform="translate(40.6375 169.003377)scale(0.1 -0.1)">
       <use xlink:href="#DejaVuSans-35"/>
      </g>
     </g>
    </g>
    <g id="ytick_4">
     <g id="line2d_12">
      <g>
       <use style="stroke:#000000;stroke-width:0.8;" x="54" xlink:href="#m6424797ff5" y="123.404047"/>
      </g>
     </g>
     <g id="text_13">
      <!-- 6 -->
      <g transform="translate(40.6375 127.203266)scale(0.1 -0.1)">
       <defs>
        <path d="M 2113 2584 
Q 1688 2584 1439 2293 
Q 1191 2003 1191 1497 
Q 1191 994 1439 701 
Q 1688 409 2113 409 
Q 2538 409 2786 701 
Q 3034 994 3034 1497 
Q 3034 2003 2786 2293 
Q 2538 2584 2113 2584 
z
M 3366 4563 
L 3366 3988 
Q 3128 4100 2886 4159 
Q 2644 4219 2406 4219 
Q 1781 4219 1451 3797 
Q 1122 3375 1075 2522 
Q 1259 2794 1537 2939 
Q 1816 3084 2150 3084 
Q 2853 3084 3261 2657 
Q 3669 2231 3669 1497 
Q 3669 778 3244 343 
Q 2819 -91 2113 -91 
Q 1303 -91 875 529 
Q 447 1150 447 2328 
Q 447 3434 972 4092 
Q 1497 4750 2381 4750 
Q 2619 4750 2861 4703 
Q 3103 4656 3366 4563 
z
" id="DejaVuSans-36" transform="scale(0.015625)"/>
       </defs>
       <use xlink:href="#DejaVuSans-36"/>
      </g>
     </g>
    </g>
    <g id="ytick_5">
     <g id="line2d_13">
      <g>
       <use style="stroke:#000000;stroke-width:0.8;" x="54" xlink:href="#m6424797ff5" y="81.603935"/>
      </g>
     </g>
     <g id="text_14">
      <!-- 7 -->
      <g transform="translate(40.6375 85.403154)scale(0.1 -0.1)">
       <use xlink:href="#DejaVuSans-37"/>
      </g>
     </g>
    </g>
    <g id="ytick_6">
     <g id="line2d_14">
      <g>
       <use style="stroke:#000000;stroke-width:0.8;" x="54" xlink:href="#m6424797ff5" y="39.803824"/>
      </g>
     </g>
     <g id="text_15">
      <!-- 8 -->
      <g transform="translate(40.6375 43.603043)scale(0.1 -0.1)">
       <defs>
        <path d="M 2034 2216 
Q 1584 2216 1326 1975 
Q 1069 1734 1069 1313 
Q 1069 891 1326 650 
Q 1584 409 2034 409 
Q 2484 409 2743 651 
Q 3003 894 3003 1313 
Q 3003 1734 2745 1975 
Q 2488 2216 2034 2216 
z
M 1403 2484 
Q 997 2584 770 2862 
Q 544 3141 544 3541 
Q 544 4100 942 4425 
Q 1341 4750 2034 4750 
Q 2731 4750 3128 4425 
Q 3525 4100 3525 3541 
Q 3525 3141 3298 2862 
Q 3072 2584 2669 2484 
Q 3125 2378 3379 2068 
Q 3634 1759 3634 1313 
Q 3634 634 3220 271 
Q 2806 -91 2034 -91 
Q 1263 -91 848 271 
Q 434 634 434 1313 
Q 434 1759 690 2068 
Q 947 2378 1403 2484 
z
M 1172 3481 
Q 1172 3119 1398 2916 
Q 1625 2713 2034 2713 
Q 2441 2713 2670 2916 
Q 2900 3119 2900 3481 
Q 2900 3844 2670 4047 
Q 2441 4250 2034 4250 
Q 1625 4250 1398 4047 
Q 1172 3844 1172 3481 
z
" id="DejaVuSans-38" transform="scale(0.015625)"/>
       </defs>
       <use xlink:href="#DejaVuSans-38"/>
      </g>
     </g>
    </g>
    <g id="text_16">
     <!-- Life Ladder -->
     <g transform="translate(34.557812 171.21125)rotate(-90)scale(0.1 -0.1)">
      <defs>
       <path d="M 628 4666 
L 1259 4666 
L 1259 531 
L 3531 531 
L 3531 0 
L 628 0 
L 628 4666 
z
" id="DejaVuSans-4c" transform="scale(0.015625)"/>
       <path d="M 2375 4863 
L 2375 4384 
L 1825 4384 
Q 1516 4384 1395 4259 
Q 1275 4134 1275 3809 
L 1275 3500 
L 2222 3500 
L 2222 3053 
L 1275 3053 
L 1275 0 
L 697 0 
L 697 3053 
L 147 3053 
L 147 3500 
L 697 3500 
L 697 3744 
Q 697 4328 969 4595 
Q 1241 4863 1831 4863 
L 2375 4863 
z
" id="DejaVuSans-66" transform="scale(0.015625)"/>
      </defs>
      <use xlink:href="#DejaVuSans-4c"/>
      <use x="55.712891" xlink:href="#DejaVuSans-69"/>
      <use x="83.496094" xlink:href="#DejaVuSans-66"/>
      <use x="118.701172" xlink:href="#DejaVuSans-65"/>
      <use x="180.224609" xlink:href="#DejaVuSans-20"/>
      <use x="212.011719" xlink:href="#DejaVuSans-4c"/>
      <use x="267.724609" xlink:href="#DejaVuSans-61"/>
      <use x="329.003906" xlink:href="#DejaVuSans-64"/>
      <use x="392.480469" xlink:href="#DejaVuSans-64"/>
      <use x="455.957031" xlink:href="#DejaVuSans-65"/>
      <use x="517.480469" xlink:href="#DejaVuSans-72"/>
     </g>
    </g>
   </g>
   <g id="line2d_15">
    <path clip-path="url(#pbec934fb1f)" d="M 143.347389 128.706349 
L 242.057479 115.65963 
L 75.657838 137.653019 
L 194.008429 122.010373 
L 77.509352 137.408301 
L 373.581818 98.275782 
L 69.873889 138.417496 
L 292.203707 109.031698 
L 234.888055 116.607228 
L 266.168709 112.472798 
L 69.218182 138.504162 
L 72.26731 138.101152 
L 144.033804 128.615624 
L 226.152521 117.761821 
L 222.624709 118.2281 
L 241.701627 115.706664 
L 109.696797 133.154019 
L 109.415005 133.191264 
L 212.902905 119.513051 
L 106.174404 133.619581 
L 100.401293 134.382625 
L 87.507529 136.086821 
L 248.4303 114.817321 
L 182.648261 123.511871 
L 142.070296 128.875145 
L 71.165433 138.24679 
L 153.061968 127.422353 
L 247.546992 114.934069 
L 88.687079 135.930917 
L 151.053301 127.687843 
L 138.609319 129.33259 
L 290.77488 109.220549 
L 73.920125 137.882696 
L 95.77883 134.993586 
L 74.828721 137.762605 
L 106.734374 133.545568 
L 130.030938 130.466413 
L 165.962957 125.717202 
L 245.475103 115.207915 
L 69.274179 138.496761 
L 265.366687 112.578803 
L 190.713637 122.445853 
L 70.153874 138.38049 
L 286.235509 109.820527 
L 84.456595 136.490069 
L 205.502267 120.491209 
L 191.559011 122.334118 
L 154.45828 127.2378 
L 139.955054 129.154721 
L 303.55665 107.531155 
L 155.925041 127.043935 
L 265.624996 112.544662 
L 225.308953 117.873318 
L 69.380754 138.482675 
L 140.686628 129.058028 
L 113.939925 132.593195 
L 70.209871 138.373088 
L 148.854966 127.978401 
L 78.629293 137.260276 
L 73.029591 138.0004 
L 73.629301 137.921135 
" style="fill:none;stroke:#ff0000;stroke-linecap:square;stroke-width:1.5;"/>
   </g>
   <g id="patch_3">
    <path d="M 54 252 
L 54 34.56 
" style="fill:none;stroke:#000000;stroke-linecap:square;stroke-linejoin:miter;stroke-width:0.8;"/>
   </g>
   <g id="patch_4">
    <path d="M 388.8 252 
L 388.8 34.56 
" style="fill:none;stroke:#000000;stroke-linecap:square;stroke-linejoin:miter;stroke-width:0.8;"/>
   </g>
   <g id="patch_5">
    <path d="M 54 252 
L 388.8 252 
" style="fill:none;stroke:#000000;stroke-linecap:square;stroke-linejoin:miter;stroke-width:0.8;"/>
   </g>
   <g id="patch_6">
    <path d="M 54 34.56 
L 388.8 34.56 
" style="fill:none;stroke:#000000;stroke-linecap:square;stroke-linejoin:miter;stroke-width:0.8;"/>
   </g>
   <g id="text_17">
    <!-- Linear Regression of Life Ladder in 2020 VS 'COVID-19 deaths per 100,000 population in 2020' -->
    <g transform="translate(-63.111562 28.56)scale(0.12 -0.12)">
     <defs>
      <path d="M 2841 2188 
Q 3044 2119 3236 1894 
Q 3428 1669 3622 1275 
L 4263 0 
L 3584 0 
L 2988 1197 
Q 2756 1666 2539 1819 
Q 2322 1972 1947 1972 
L 1259 1972 
L 1259 0 
L 628 0 
L 628 4666 
L 2053 4666 
Q 2853 4666 3247 4331 
Q 3641 3997 3641 3322 
Q 3641 2881 3436 2590 
Q 3231 2300 2841 2188 
z
M 1259 4147 
L 1259 2491 
L 2053 2491 
Q 2509 2491 2742 2702 
Q 2975 2913 2975 3322 
Q 2975 3731 2742 3939 
Q 2509 4147 2053 4147 
L 1259 4147 
z
" id="DejaVuSans-52" transform="scale(0.015625)"/>
      <path d="M 2906 1791 
Q 2906 2416 2648 2759 
Q 2391 3103 1925 3103 
Q 1463 3103 1205 2759 
Q 947 2416 947 1791 
Q 947 1169 1205 825 
Q 1463 481 1925 481 
Q 2391 481 2648 825 
Q 2906 1169 2906 1791 
z
M 3481 434 
Q 3481 -459 3084 -895 
Q 2688 -1331 1869 -1331 
Q 1566 -1331 1297 -1286 
Q 1028 -1241 775 -1147 
L 775 -588 
Q 1028 -725 1275 -790 
Q 1522 -856 1778 -856 
Q 2344 -856 2625 -561 
Q 2906 -266 2906 331 
L 2906 616 
Q 2728 306 2450 153 
Q 2172 0 1784 0 
Q 1141 0 747 490 
Q 353 981 353 1791 
Q 353 2603 747 3093 
Q 1141 3584 1784 3584 
Q 2172 3584 2450 3431 
Q 2728 3278 2906 2969 
L 2906 3500 
L 3481 3500 
L 3481 434 
z
" id="DejaVuSans-67" transform="scale(0.015625)"/>
      <path d="M 3425 4513 
L 3425 3897 
Q 3066 4069 2747 4153 
Q 2428 4238 2131 4238 
Q 1616 4238 1336 4038 
Q 1056 3838 1056 3469 
Q 1056 3159 1242 3001 
Q 1428 2844 1947 2747 
L 2328 2669 
Q 3034 2534 3370 2195 
Q 3706 1856 3706 1288 
Q 3706 609 3251 259 
Q 2797 -91 1919 -91 
Q 1588 -91 1214 -16 
Q 841 59 441 206 
L 441 856 
Q 825 641 1194 531 
Q 1563 422 1919 422 
Q 2459 422 2753 634 
Q 3047 847 3047 1241 
Q 3047 1584 2836 1778 
Q 2625 1972 2144 2069 
L 1759 2144 
Q 1053 2284 737 2584 
Q 422 2884 422 3419 
Q 422 4038 858 4394 
Q 1294 4750 2059 4750 
Q 2388 4750 2728 4690 
Q 3069 4631 3425 4513 
z
" id="DejaVuSans-53" transform="scale(0.015625)"/>
      <path d="M 1147 4666 
L 1147 2931 
L 616 2931 
L 616 4666 
L 1147 4666 
z
" id="DejaVuSans-27" transform="scale(0.015625)"/>
     </defs>
     <use xlink:href="#DejaVuSans-4c"/>
     <use x="55.712891" xlink:href="#DejaVuSans-69"/>
     <use x="83.496094" xlink:href="#DejaVuSans-6e"/>
     <use x="146.875" xlink:href="#DejaVuSans-65"/>
     <use x="208.398438" xlink:href="#DejaVuSans-61"/>
     <use x="269.677734" xlink:href="#DejaVuSans-72"/>
     <use x="310.791016" xlink:href="#DejaVuSans-20"/>
     <use x="342.578125" xlink:href="#DejaVuSans-52"/>
     <use x="407.560547" xlink:href="#DejaVuSans-65"/>
     <use x="469.083984" xlink:href="#DejaVuSans-67"/>
     <use x="532.560547" xlink:href="#DejaVuSans-72"/>
     <use x="571.423828" xlink:href="#DejaVuSans-65"/>
     <use x="632.947266" xlink:href="#DejaVuSans-73"/>
     <use x="685.046875" xlink:href="#DejaVuSans-73"/>
     <use x="737.146484" xlink:href="#DejaVuSans-69"/>
     <use x="764.929688" xlink:href="#DejaVuSans-6f"/>
     <use x="826.111328" xlink:href="#DejaVuSans-6e"/>
     <use x="889.490234" xlink:href="#DejaVuSans-20"/>
     <use x="921.277344" xlink:href="#DejaVuSans-6f"/>
     <use x="982.458984" xlink:href="#DejaVuSans-66"/>
     <use x="1017.664062" xlink:href="#DejaVuSans-20"/>
     <use x="1049.451172" xlink:href="#DejaVuSans-4c"/>
     <use x="1105.164062" xlink:href="#DejaVuSans-69"/>
     <use x="1132.947266" xlink:href="#DejaVuSans-66"/>
     <use x="1168.152344" xlink:href="#DejaVuSans-65"/>
     <use x="1229.675781" xlink:href="#DejaVuSans-20"/>
     <use x="1261.462891" xlink:href="#DejaVuSans-4c"/>
     <use x="1317.175781" xlink:href="#DejaVuSans-61"/>
     <use x="1378.455078" xlink:href="#DejaVuSans-64"/>
     <use x="1441.931641" xlink:href="#DejaVuSans-64"/>
     <use x="1505.408203" xlink:href="#DejaVuSans-65"/>
     <use x="1566.931641" xlink:href="#DejaVuSans-72"/>
     <use x="1608.044922" xlink:href="#DejaVuSans-20"/>
     <use x="1639.832031" xlink:href="#DejaVuSans-69"/>
     <use x="1667.615234" xlink:href="#DejaVuSans-6e"/>
     <use x="1730.994141" xlink:href="#DejaVuSans-20"/>
     <use x="1762.78125" xlink:href="#DejaVuSans-32"/>
     <use x="1826.404297" xlink:href="#DejaVuSans-30"/>
     <use x="1890.027344" xlink:href="#DejaVuSans-32"/>
     <use x="1953.650391" xlink:href="#DejaVuSans-30"/>
     <use x="2017.273438" xlink:href="#DejaVuSans-20"/>
     <use x="2049.060547" xlink:href="#DejaVuSans-56"/>
     <use x="2117.46875" xlink:href="#DejaVuSans-53"/>
     <use x="2180.945312" xlink:href="#DejaVuSans-20"/>
     <use x="2212.732422" xlink:href="#DejaVuSans-27"/>
     <use x="2240.222656" xlink:href="#DejaVuSans-43"/>
     <use x="2310.046875" xlink:href="#DejaVuSans-4f"/>
     <use x="2387.007812" xlink:href="#DejaVuSans-56"/>
     <use x="2455.416016" xlink:href="#DejaVuSans-49"/>
     <use x="2484.908203" xlink:href="#DejaVuSans-44"/>
     <use x="2561.910156" xlink:href="#DejaVuSans-2d"/>
     <use x="2597.994141" xlink:href="#DejaVuSans-31"/>
     <use x="2661.617188" xlink:href="#DejaVuSans-39"/>
     <use x="2725.240234" xlink:href="#DejaVuSans-20"/>
     <use x="2757.027344" xlink:href="#DejaVuSans-64"/>
     <use x="2820.503906" xlink:href="#DejaVuSans-65"/>
     <use x="2882.027344" xlink:href="#DejaVuSans-61"/>
     <use x="2943.306641" xlink:href="#DejaVuSans-74"/>
     <use x="2982.515625" xlink:href="#DejaVuSans-68"/>
     <use x="3045.894531" xlink:href="#DejaVuSans-73"/>
     <use x="3097.994141" xlink:href="#DejaVuSans-20"/>
     <use x="3129.78125" xlink:href="#DejaVuSans-70"/>
     <use x="3193.257812" xlink:href="#DejaVuSans-65"/>
     <use x="3254.78125" xlink:href="#DejaVuSans-72"/>
     <use x="3295.894531" xlink:href="#DejaVuSans-20"/>
     <use x="3327.681641" xlink:href="#DejaVuSans-31"/>
     <use x="3391.304688" xlink:href="#DejaVuSans-30"/>
     <use x="3454.927734" xlink:href="#DejaVuSans-30"/>
     <use x="3518.550781" xlink:href="#DejaVuSans-2c"/>
     <use x="3550.337891" xlink:href="#DejaVuSans-30"/>
     <use x="3613.960938" xlink:href="#DejaVuSans-30"/>
     <use x="3677.583984" xlink:href="#DejaVuSans-30"/>
     <use x="3741.207031" xlink:href="#DejaVuSans-20"/>
     <use x="3772.994141" xlink:href="#DejaVuSans-70"/>
     <use x="3836.470703" xlink:href="#DejaVuSans-6f"/>
     <use x="3897.652344" xlink:href="#DejaVuSans-70"/>
     <use x="3961.128906" xlink:href="#DejaVuSans-75"/>
     <use x="4024.507812" xlink:href="#DejaVuSans-6c"/>
     <use x="4052.291016" xlink:href="#DejaVuSans-61"/>
     <use x="4113.570312" xlink:href="#DejaVuSans-74"/>
     <use x="4152.779297" xlink:href="#DejaVuSans-69"/>
     <use x="4180.5625" xlink:href="#DejaVuSans-6f"/>
     <use x="4241.744141" xlink:href="#DejaVuSans-6e"/>
     <use x="4305.123047" xlink:href="#DejaVuSans-20"/>
     <use x="4336.910156" xlink:href="#DejaVuSans-69"/>
     <use x="4364.693359" xlink:href="#DejaVuSans-6e"/>
     <use x="4428.072266" xlink:href="#DejaVuSans-20"/>
     <use x="4459.859375" xlink:href="#DejaVuSans-32"/>
     <use x="4523.482422" xlink:href="#DejaVuSans-30"/>
     <use x="4587.105469" xlink:href="#DejaVuSans-32"/>
     <use x="4650.728516" xlink:href="#DejaVuSans-30"/>
     <use x="4714.351562" xlink:href="#DejaVuSans-27"/>
    </g>
   </g>
  </g>
 </g>
 <defs>
  <clipPath id="pbec934fb1f">
   <rect height="217.44" width="334.8" x="54" y="34.56"/>
  </clipPath>
 </defs>
</svg>
